<?xml version="1.0" encoding="utf-8"?>
<!-- Generator: Adobe Illustrator 16.0.0, SVG Export Plug-In . SVG Version: 6.00 Build 0)  -->
<!DOCTYPE svg PUBLIC "-//W3C//DTD SVG 1.1//EN" "http://www.w3.org/Graphics/SVG/1.1/DTD/svg11.dtd">
<svg version="1.1" id="Layer_1" xmlns="http://www.w3.org/2000/svg" xmlns:xlink="http://www.w3.org/1999/xlink" x="0px" y="0px"
	 width="800px" height="193.592px" viewBox="0 0 800 193.592" enable-background="new 0 0 800 193.592" xml:space="preserve">
<path fill="#FFFFFF" d="M166,26.545C166,11.885,154.115,0,139.455,0H26.545C11.885,0,0,11.885,0,26.545v112.909
	C0,154.115,11.885,166,26.545,166h112.909C154.115,166,166,154.115,166,139.455V26.545z M70.808,135H44.263
	c-7.33,0-13.273-5.669-13.273-13s5.943-13,13.273-13h26.545c7.33,0,13.273,5.669,13.273,13S78.138,135,70.808,135z M97.353,96
	h-53.09c-7.33,0-13.273-6.169-13.273-13.5c0-7.331,5.943-13.5,13.273-13.5h53.09c7.33,0,13.273,6.169,13.273,13.5
	C110.626,89.831,104.683,96,97.353,96z M123.898,56H44.263c-7.33,0-13.273-6.17-13.273-13.5S36.933,29,44.263,29h79.636
	c7.33,0,13.273,6.17,13.273,13.5S131.229,56,123.898,56z"/>
<g>
	<path fill="#FFFFFF" d="M212.783,59.805c2.102-19.494,7.454-29.624,15.099-37.269c9.174-8.982,19.877-12.423,30.389-12.423
		c10.894,0,18.729,4.205,20.641,10.703c0,7.072-4.969,12.614-11.659,12.614c-5.733,0-11.085-4.205-16.245-12.232l-1.53-2.485
		c-1.72,1.338-3.058,2.485-4.205,4.014c-5.734,7.263-7.836,19.686-7.454,37.078h21.598v12.232h-21.023v39.372
		c0,9.557,0.19,19.112,0.382,28.668l14.524,3.058v8.41h-52.75v-8.41l11.467-2.293c0.191-9.747,0.382-19.686,0.382-29.433V72.037
		h-12.614V61.525L212.783,59.805z"/>
	<path fill="#FFFFFF" d="M306.816,77.007c7.072-12.806,17.009-20.642,25.801-20.642c5.352,0,12.232,2.675,14.144,11.85
		c0,8.41-5.352,14.143-13.379,14.143c-5.16,0-9.747-2.485-14.716-7.836l-0.383-0.382c-4.587,4.205-8.6,9.748-11.467,16.819v20.45
		c0,8.027,0,19.494,0.19,28.859l14.526,2.867v8.41h-52.559v-8.41l11.659-2.293c0.19-9.366,0.19-21.215,0.19-29.433v-11.084
		c0-10.513-0.19-14.909-0.573-22.553l-12.805-1.72v-7.262l34.593-12.423l2.866,1.911L306.816,77.007z"/>
	<path fill="#FFFFFF" d="M447.675,105.674c0,30.389-20.641,48.737-48.354,48.737c-27.521,0-48.353-18.348-48.353-48.737
		c0-30.388,22.744-49.309,48.353-49.309C424.739,56.365,447.675,75.286,447.675,105.674z M379.253,105.484
		c0,26.757,6.88,39.371,20.067,39.371c13.379,0,20.068-12.614,20.068-39.371c0-26.375-6.689-39.562-20.068-39.562
		C386.133,65.921,379.253,79.109,379.253,105.484z"/>
	<path fill="#FFFFFF" d="M568.464,143.135v8.41h-48.927v-8.41l11.657-2.293c0.191-9.366,0.191-21.023,0.191-29.433V93.062
		c0-14.526-2.484-21.024-11.276-21.024c-7.262,0-14.143,4.205-21.597,11.276v28.096c0,8.218,0,20.067,0.19,29.433l10.895,2.293v8.41
		H460.67v-8.41l11.659-2.293c0.19-9.557,0.19-21.215,0.19-29.433v-10.894c0-10.512-0.19-15.099-0.572-22.744l-12.805-1.72v-7.262
		l34.593-12.423l2.866,1.911l1.339,15.099c10.702-12.041,18.156-17.01,31.151-17.01c18.156,0,28.286,10.703,28.286,33.637v21.406
		c0,8.41,0,20.259,0.192,29.433L568.464,143.135z"/>
	<path fill="#FFFFFF" d="M640.901,139.885c-4.779,7.454-14.144,13.571-27.713,13.571c-15.481,0-25.229-7.454-25.229-23.508
		c0-7.836,0.191-12.614,0.191-20.068V72.037h-12.806V61.525l15.099-1.911l5.352-26.566h18.348v26.757h21.788v12.232h-21.788v52.559
		c0,9.365,4.014,13.379,9.938,13.379c2.485,0,6.689-0.765,11.276-4.587L640.901,139.885z"/>
	<path fill="#FFFFFF" d="M695.561,143.135v8.41h-48.545v-8.41l11.467-2.293c0.191-9.939,0.382-19.686,0.382-29.433V32.093
		l-14.334-1.911v-7.646l38.033-8.6l2.677,1.529l-0.765,27.139v68.805c0,9.747,0.19,19.686,0.382,29.433L695.561,143.135z"/>
	<path fill="#FFFFFF" d="M798.956,68.215l-12.231,2.103l-30.771,83.711c-9.747,26.566-18.729,39.563-35.357,39.563
		c-10.32,0-19.494-4.97-19.494-13.379c2.103-6.498,6.499-8.982,12.806-8.982c4.396,0,8.601,1.146,13.76,5.733l3.25,2.867
		c5.352-4.778,9.747-11.277,13.76-20.642l-35.931-88.681l-10.895-2.293v-8.41h52.177v8.41l-13.379,2.676l20.068,54.853
		l19.495-55.235l-12.232-2.293v-8.41h34.976V68.215z"/>
</g>
</svg>
